name rise30.8019peak61.5557fall86.2505.mot
datacolumns 19
datarows 35
range 2.93999000000000 2.99666400000000
endheader
time	ground_force1_vx	ground_force1_vy	ground_force1_vz	ground_force1_px	ground_force1_py	ground_force1_pz	ground_force2_vx	ground_force2_vy	ground_force2_vz	ground_force2_px	ground_force2_py	ground_force2_pz	ground_torque1_x	ground_torque1_y	ground_torque1_z	ground_torque2_x	ground_torque2_y	ground_torque2_z	
2.93999000000000	-45.21273600000000	777.84509900000000	47.04689700000000	0.02911500000000	0.00000000000000	0.10759700000000	0.00000000000000	0.00000000000000	0.00000000000000	0.00000000000000	0.00000000000000	0.00000000000000	0.00000000000000	14.03495100000000	0.00000000000000	0.00000000000000	0.00000000000000	0.00000000000000	
2.94166600000000	-45.37073300000000	776.19208700000001	46.83855100000000	0.02847500000000	0.00000000000000	0.10751900000000	0.00000000000000	0.00000000000000	0.00000000000000	0.00000000000000	0.00000000000000	0.00000000000000	0.00000000000000	13.93596300000000	0.00000000000000	0.00000000000000	0.00000000000000	0.00000000000000	
2.94332900000000	-45.54762900000000	774.48591699999997	46.62081900000000	0.02783400000000	0.00000000000000	0.10743800000000	0.00000000000000	0.00000000000000	0.00000000000000	0.00000000000000	0.00000000000000	0.00000000000000	0.00000000000000	13.84099400000000	0.00000000000000	0.00000000000000	0.00000000000000	0.00000000000000	
2.94499500000000	-45.74427200000000	772.72690399999999	46.39388900000000	0.02719100000000	0.00000000000000	0.10735300000000	0.00000000000000	0.00000000000000	0.00000000000000	0.00000000000000	0.00000000000000	0.00000000000000	0.00000000000000	13.75025900000000	0.00000000000000	0.00000000000000	0.00000000000000	0.00000000000000	
2.94665700000000	-45.96146700000000	770.91527099999996	46.15793900000000	0.02654500000000	0.00000000000000	0.10726500000000	0.00000000000000	0.00000000000000	0.00000000000000	0.00000000000000	0.00000000000000	0.00000000000000	0.00000000000000	13.66396400000000	0.00000000000000	0.00000000000000	0.00000000000000	0.00000000000000	
2.94832800000000	-46.19997600000000	769.05113900000003	45.91314400000000	0.02589700000000	0.00000000000000	0.10717300000000	0.00000000000000	0.00000000000000	0.00000000000000	0.00000000000000	0.00000000000000	0.00000000000000	0.00000000000000	13.58230400000000	0.00000000000000	0.00000000000000	0.00000000000000	0.00000000000000	
2.94999600000000	-46.46051000000000	767.13452500000005	45.65967100000000	0.02524600000000	0.00000000000000	0.10707700000000	-1.72741600000000	3.72131300000000	1.16490300000000	0.00000000000000	0.00000000000000	0.00000000000000	0.00000000000000	13.50546300000000	0.00000000000000	0.00000000000000	0.24255600000000	0.00000000000000	
2.95166500000000	-46.74373000000000	765.16533400000003	45.39767600000000	0.02459200000000	0.00000000000000	0.10697800000000	-2.79135200000000	6.96823100000000	1.96254000000000	0.00000000000000	0.00000000000000	0.00000000000000	0.00000000000000	13.43361400000000	0.00000000000000	0.00000000000000	0.42412100000000	0.00000000000000	
2.95332100000000	-47.05023800000000	763.14335300000005	45.12730900000000	0.02393500000000	0.00000000000000	0.10687600000000	-4.00117800000000	10.86325700000000	2.88577700000000	0.00000000000000	0.00000000000000	0.00000000000000	0.00000000000000	13.36692000000000	0.00000000000000	0.00000000000000	0.63704800000000	0.00000000000000	
2.95499600000000	-47.38058000000000	761.06824900000004	44.84870700000000	0.02327500000000	0.00000000000000	0.10676900000000	-5.32232700000000	15.35712100000000	3.91295400000000	0.00000000000000	0.00000000000000	0.00000000000000	0.00000000000000	13.30552900000000	0.00000000000000	0.00000000000000	0.87712100000000	0.00000000000000	
2.95665500000000	-47.73523900000000	758.93956400000002	44.56199800000000	0.02261200000000	0.00000000000000	0.10666000000000	-6.71112900000000	20.37103700000000	5.01532600000000	0.00000000000000	0.00000000000000	0.00000000000000	0.00000000000000	13.24957700000000	0.00000000000000	0.00000000000000	1.13846400000000	0.00000000000000	
2.95832300000000	-48.11463100000000	756.75670800000000	44.26729700000000	0.02194500000000	0.00000000000000	0.10654700000000	-8.11769800000000	25.80251500000000	6.15897800000000	0.29111900000000	0.00000000000000	-0.05890200000000	0.00000000000000	13.19918800000000	0.00000000000000	0.00000000000000	2.72877600000000	0.00000000000000	
2.95999700000000	-48.51910500000000	754.51896099999999	43.96470800000000	0.02127400000000	0.00000000000000	0.10643000000000	-9.48961500000000	31.53379200000000	7.30734700000000	0.29476200000000	0.00000000000000	-0.05936100000000	0.00000000000000	13.15447000000000	0.00000000000000	0.00000000000000	3.28624900000000	0.00000000000000	
2.96165900000000	-48.94893700000000	752.22546699999998	43.65432200000000	0.02060000000000	0.00000000000000	0.10631100000000	-10.77592100000000	37.44177900000000	8.42403300000000	0.29806300000000	0.00000000000000	-0.05980400000000	0.00000000000000	13.11551800000000	0.00000000000000	0.00000000000000	3.84201100000000	0.00000000000000	
2.96332800000000	-49.40432600000000	749.87523499999998	43.33622000000000	0.01992200000000	0.00000000000000	0.10618800000000	-11.93086900000000	43.40810100000000	9.47550500000000	0.30106200000000	0.00000000000000	-0.06023300000000	0.00000000000000	13.08241200000000	0.00000000000000	0.00000000000000	4.38026100000000	0.00000000000000	
2.96498800000000	-49.88539600000000	747.46713399999999	43.01046900000000	0.01923900000000	0.00000000000000	0.10606200000000	-12.91697900000000	49.32791800000000	10.43336600000000	0.30379200000000	0.00000000000000	-0.06065100000000	0.00000000000000	13.05521500000000	0.00000000000000	0.00000000000000	4.88710000000000	0.00000000000000	
2.96666800000000	-50.39219000000000	744.99989800000003	42.67712100000000	0.01855300000000	0.00000000000000	0.10593200000000	-13.70706500000000	55.11658600000000	11.27592700000000	0.30628300000000	0.00000000000000	-0.06105800000000	0.00000000000000	13.03397600000000	0.00000000000000	0.00000000000000	5.35136500000000	0.00000000000000	
2.96833200000000	-50.92466500000000	742.47212100000002	42.33622000000000	0.01786200000000	0.00000000000000	0.10580000000000	-14.28515500000000	60.71372500000000	11.98903200000000	0.30855900000000	0.00000000000000	-0.06145500000000	0.00000000000000	13.01872800000000	0.00000000000000	0.00000000000000	5.76511300000000	0.00000000000000	
2.97000000000000	-51.48269300000000	739.88226199999997	41.98779700000000	0.01716700000000	0.00000000000000	0.10566500000000	-14.64635700000000	66.08465200000001	12.56612800000000	0.31064000000000	0.00000000000000	-0.06184500000000	0.00000000000000	13.00948500000000	0.00000000000000	0.00000000000000	6.12377700000000	0.00000000000000	
2.97165800000000	-52.06605800000000	737.22864400000003	41.63186900000000	0.01646700000000	0.00000000000000	0.10552700000000	-14.79583300000000	71.21947000000000	13.00770900000000	0.31254500000000	0.00000000000000	-0.06222800000000	0.00000000000000	13.00624700000000	0.00000000000000	0.00000000000000	6.42600900000000	0.00000000000000	
2.97332200000000	-52.67445400000000	734.50945999999999	41.26844500000000	0.01576200000000	0.00000000000000	0.10538700000000	-14.74712400000000	76.13025900000000	13.32027400000000	0.31429000000000	0.00000000000000	-0.06260400000000	0.00000000000000	13.00899300000000	0.00000000000000	0.00000000000000	6.67328900000000	0.00000000000000	
2.97498800000000	-53.30747900000000	731.72277399999996	40.89752300000000	0.01505300000000	0.00000000000000	0.10524400000000	-14.52006600000000	80.84694399999999	13.51496100000000	0.31588700000000	0.00000000000000	-0.06297400000000	0.00000000000000	13.01768800000000	0.00000000000000	0.00000000000000	6.86936700000000	0.00000000000000	
2.97665800000000	-53.96463900000000	728.86652300000003	40.51909100000000	0.01433900000000	0.00000000000000	0.10509800000000	-14.13853900000000	85.41240000000001	13.60605100000000	0.31734900000000	0.00000000000000	-0.06333800000000	0.00000000000000	13.03227500000000	0.00000000000000	0.00000000000000	7.01961000000000	0.00000000000000	
2.97832300000000	-54.64534300000000	725.93853000000001	40.13312700000000	0.01362100000000	0.00000000000000	0.10495000000000	-13.62828100000000	89.87734000000000	13.60945600000000	0.31868600000000	0.00000000000000	-0.06369800000000	0.00000000000000	13.05268200000000	0.00000000000000	0.00000000000000	7.13033600000000	0.00000000000000	
2.97999000000000	-55.34889900000000	722.93649900000003	39.73960500000000	0.01289700000000	0.00000000000000	0.10480000000000	-13.01490300000000	94.29543200000001	13.54134500000000	0.31990700000000	0.00000000000000	-0.06405200000000	0.00000000000000	13.07881700000000	0.00000000000000	0.00000000000000	7.20818400000000	0.00000000000000	
2.98166100000000	-56.07451900000000	719.85802999999999	39.33848700000000	0.01216900000000	0.00000000000000	0.10464700000000	-12.32226000000000	98.71900700000000	13.41698100000000	0.32102100000000	0.00000000000000	-0.06440300000000	0.00000000000000	13.11057000000000	0.00000000000000	0.00000000000000	7.25956700000000	0.00000000000000	
2.98332600000000	-56.82131400000000	716.70062399999995	38.92973500000000	0.01143500000000	0.00000000000000	0.10449300000000	-11.57122300000000	103.19557600000000	13.24981900000000	0.32203500000000	0.00000000000000	-0.06474900000000	0.00000000000000	13.14780900000000	0.00000000000000	0.00000000000000	7.29024200000000	0.00000000000000	
2.98500100000000	-57.58829000000000	713.46168599999999	38.51330100000000	0.01069600000000	0.00000000000000	0.10433700000000	-10.77888500000000	107.76529800000000	13.05090100000000	0.32295500000000	0.00000000000000	-0.06509100000000	0.00000000000000	13.19038700000000	0.00000000000000	0.00000000000000	7.30499900000000	0.00000000000000	
2.98666800000000	-58.37435700000000	710.13854200000003	38.08913700000000	0.00995200000000	0.00000000000000	0.10417800000000	-9.95818500000000	112.45941800000000	12.82854000000000	0.32378800000000	0.00000000000000	-0.06543000000000	0.00000000000000	13.23813500000000	0.00000000000000	0.00000000000000	7.30749100000000	0.00000000000000	
2.98832900000000	-59.17831800000000	706.72843899999998	37.65719200000000	0.00920300000000	0.00000000000000	0.10401900000000	-9.11790100000000	117.29961700000000	12.58825600000000	0.32453700000000	0.00000000000000	-0.06576400000000	0.00000000000000	13.29086700000000	0.00000000000000	0.00000000000000	7.30017500000000	0.00000000000000	
2.98999200000000	-59.99887600000000	703.22856200000001	37.21741400000000	0.00844900000000	0.00000000000000	0.10385700000000	-8.26295200000000	122.29816900000000	12.33293600000000	0.32520900000000	0.00000000000000	-0.06609500000000	0.00000000000000	13.34837500000000	0.00000000000000	0.00000000000000	7.28435600000000	0.00000000000000	
2.99165900000000	-60.83463200000000	699.63603899999998	36.76975200000000	0.00769000000000	0.00000000000000	0.10369400000000	-7.39492000000000	127.45872900000001	12.06315500000000	0.32580700000000	0.00000000000000	-0.06642200000000	0.00000000000000	13.41043600000000	0.00000000000000	0.00000000000000	7.26031600000000	0.00000000000000	
2.99332300000000	-61.68408800000000	695.94795399999998	36.31415700000000	0.00692500000000	0.00000000000000	0.10353000000000	-6.51272300000000	132.77759100000000	11.77761300000000	0.32633400000000	0.00000000000000	-0.06674600000000	0.00000000000000	13.47680500000000	0.00000000000000	0.00000000000000	7.22748900000000	0.00000000000000	
2.99499000000000	-62.54564400000000	692.16135899999995	35.85058200000000	0.00615500000000	0.00000000000000	0.10336500000000	-5.61335600000000	138.24522899999999	11.47362600000000	0.32679600000000	0.00000000000000	-0.06706600000000	0.00000000000000	13.54721900000000	0.00000000000000	0.00000000000000	7.18468000000000	0.00000000000000	
2.99666400000000	-63.41760400000000	688.27328100000000	35.37898600000000	0.00537900000000	0.00000000000000	0.10319900000000	-4.69262900000000	143.84795500000001	11.14763600000000	0.32719300000000	0.00000000000000	-0.06738200000000	0.00000000000000	13.62139600000000	0.00000000000000	0.00000000000000	7.13028500000000	0.00000000000000	
